<?xml version="1.0" ?>

<svg version="1.1"
     xmlns="http://www.w3.org/2000/svg"
     xmlns:xlink="http://www.w3.org/1999/xlink"
     height="100%" viewBox="0 -50 855 900"
     preserveAspectRatio="xMinYMin">

    <defs>
        <marker id="beginArrow" markerWidth="12" markerHeight="12" refX="0" refY="6" orient="auto">
            <path d="M0,6 L12,0 L12,12 L0,6" style="fill: #000000;"/>
        </marker>
        <marker id="endArrow" markerWidth="12" markerHeight="12" refX="12" refY="6" orient="auto">
            <path d="M0,0 L12,6 L0,12 L0,0 " style="fill: #000000;"/>
        </marker>
    </defs>

    <!-- Ramme -->


    <!-- Pile -->
    <line x1="40" y1="40" x2="40" y2="640" style="stroke:#000000;
        marker-start: url(#beginArrow);
        marker-end: url(#endArrow);"/>

    <line x1="75" y1="680" x2="855" y2="680" style="stroke:#000000;
        marker-start: url(#beginArrow);
        marker-end: url(#endArrow);"/>

    <line x1="65" y1="72" x2="65" y2="610" style="stroke:#000000;
        marker-start: url(#beginArrow);
        marker-end: url(#endArrow);"/>

    <!-- Pile mellem hver rem -->

    <line x1="75" y1="15" x2="75" y2="50" style="stroke:#000000;"/>
    <line x1="130" y1="15" x2="130" y2="50" style="stroke:#000000;"/>
    <line x1="185" y1="15" x2="185" y2="50" style="stroke:#000000;"/>
    <line x1="240" y1="15" x2="240" y2="50" style="stroke:#000000;"/>
    <line x1="295" y1="15" x2="295" y2="50" style="stroke:#000000;"/>
    <line x1="350" y1="15" x2="350" y2="50" style="stroke:#000000;"/>
    <line x1="405" y1="15" x2="405" y2="50" style="stroke:#000000;"/>
    <line x1="460" y1="15" x2="460" y2="50" style="stroke:#000000;"/>
    <line x1="515" y1="15" x2="515" y2="50" style="stroke:#000000;"/>
    <line x1="570" y1="15" x2="570" y2="50" style="stroke:#000000;"/>
    <line x1="625" y1="15" x2="625" y2="50" style="stroke:#000000;"/>
    <line x1="680" y1="15" x2="680" y2="50" style="stroke:#000000;"/>
    <line x1="735" y1="15" x2="735" y2="50" style="stroke:#000000;"/>
    <line x1="790" y1="15" x2="790" y2="50" style="stroke:#000000;"/>
    <line x1="855" y1="15" x2="855" y2="50" style="stroke:#000000;"/>


    <!-- Pile til afstand mellem remme -->

    <line x1="75" y1="20" x2="130" y2="20" style="stroke:#000000;
        marker-start: url(#beginArrow);
        marker-end: url(#endArrow);"/>
    <line x1="130" y1="20" x2="185" y2="20" style="stroke:#000000;
        marker-start: url(#beginArrow);
        marker-end: url(#endArrow);"/>
    <line x1="185" y1="20" x2="240" y2="20" style="stroke:#000000;
        marker-start: url(#beginArrow);
        marker-end: url(#endArrow);"/>
    <line x1="240" y1="20" x2="295" y2="20" style="stroke:#000000;
        marker-start: url(#beginArrow);
        marker-end: url(#endArrow);"/>
    <line x1="295" y1="20" x2="350" y2="20" style="stroke:#000000;
        marker-start: url(#beginArrow);
        marker-end: url(#endArrow);"/>
    <line x1="350" y1="20" x2="405" y2="20" style="stroke:#000000;
        marker-start: url(#beginArrow);
        marker-end: url(#endArrow);"/>
    <line x1="405" y1="20" x2="460" y2="20" style="stroke:#000000;
        marker-start: url(#beginArrow);
        marker-end: url(#endArrow);"/>
    <line x1="460" y1="20" x2="515" y2="20" style="stroke:#000000;
        marker-start: url(#beginArrow);
        marker-end: url(#endArrow);"/>
    <line x1="515" y1="20" x2="570" y2="20" style="stroke:#000000;
        marker-start: url(#beginArrow);
        marker-end: url(#endArrow);"/>
    <line x1="570" y1="20" x2="625" y2="20" style="stroke:#000000;
        marker-start: url(#beginArrow);
        marker-end: url(#endArrow);"/>
    <line x1="625" y1="20" x2="680" y2="20" style="stroke:#000000;
        marker-start: url(#beginArrow);
        marker-end: url(#endArrow);"/>
    <line x1="680" y1="20" x2="735" y2="20" style="stroke:#000000;
        marker-start: url(#beginArrow);
        marker-end: url(#endArrow);"/>
    <line x1="735" y1="20" x2="790" y2="20" style="stroke:#000000;
        marker-start: url(#beginArrow);
        marker-end: url(#endArrow);"/>
    <line x1="790" y1="20" x2="855" y2="20" style="stroke:#000000;
        marker-start: url(#beginArrow);
        marker-end: url(#endArrow);"/>


    <!-- Text: Mål for selve carporten -->
    <text style="text-anchor: middle" transform="translate(30,300) rotate(-90)">600 cm</text>
    <text style="text-anchor: middle" transform="translate(55,300) rotate(-90)">530 cm</text>
    <text style="text-anchor: middle" x="502" y="700">780 cm</text>


    <!-- Text: Mål mellem hver rem -->
    <text style="text-anchor: middle" x="105" y="10">0,55</text>
    <text style="text-anchor: middle" x="160" y="10">0,55</text>
    <text style="text-anchor: middle" x="215" y="10">0,55</text>
    <text style="text-anchor: middle" x="270" y="10">0,55</text>
    <text style="text-anchor: middle" x="325" y="10">0,55</text>
    <text style="text-anchor: middle" x="380" y="10">0,55</text>
    <text style="text-anchor: middle" x="435" y="10">0,55</text>
    <text style="text-anchor: middle" x="490" y="10">0,55</text>
    <text style="text-anchor: middle" x="550" y="10">0,55</text>
    <text style="text-anchor: middle" x="605" y="10">0,55</text>
    <text style="text-anchor: middle" x="657" y="10">0,55</text>
    <text style="text-anchor: middle" x="712" y="10">0,55</text>
    <text style="text-anchor: middle" x="767" y="10">0,55</text>
    <text style="text-anchor: middle" x="823" y="10">0,55</text>


    <svg version="1.1" xmlns="http://www.w3.org/2000/svg" xmlns:xlink="http://www.w3.org/1999/xlink" x="75" y="40"
         width="800" height="600" viewBox="0 -20 780 600" preserveAspectRatio="xMinYMin">

        <!-- The scene description goes here!  -->

        <!-- Ramme -->
        <rect x="0" y="0" height="600" width="780" style="stroke:#000000; fill: #ffffff"/>

        <!-- Remme -->
        <rect x="0" y="35" height="4.5" width="780" style="stroke:#000000; fill: #ffffff"/>
        <rect x="0" y="565" height="4.5" width="780" style="stroke:#000000; fill: #ffffff"/>

        <!-- Spær -->
        <rect x="0" y="0" height="600" width="4.5" style="stroke:#000000; fill: #ffffff"/>
        <rect x="55" y="0" height="600" width="4.5" style="stroke:#000000; fill: #ffffff"/>
        <rect x="110" y="0" height="600" width="4.5" style="stroke:#000000; fill: #ffffff"/>
        <rect x="165" y="0" height="600" width="4.5" style="stroke:#000000; fill: #ffffff"/>
        <rect x="220" y="0" height="600" width="4.5" style="stroke:#000000; fill: #ffffff"/>
        <rect x="275" y="0" height="600" width="4.5" style="stroke:#000000; fill: #ffffff"/>
        <rect x="330" y="0" height="600" width="4.5" style="stroke:#000000; fill: #ffffff"/>
        <rect x="385" y="0" height="600" width="4.5" style="stroke:#000000; fill: #ffffff"/>
        <rect x="440" y="0" height="600" width="4.5" style="stroke:#000000; fill: #ffffff"/>
        <rect x="495" y="0" height="600" width="4.5" style="stroke:#000000; fill: #ffffff"/>
        <rect x="550" y="0" height="600" width="4.5" style="stroke:#000000; fill: #ffffff"/>
        <rect x="605" y="0" height="600" width="4.5" style="stroke:#000000; fill: #ffffff"/>
        <rect x="660" y="0" height="600" width="4.5" style="stroke:#000000; fill: #ffffff"/>
        <rect x="715" y="0" height="600" width="4.5" style="stroke:#000000; fill: #ffffff"/>


        <!-- Kryds -->
        <line x1="55" y1="35" x2="600" y2="569.5" style="stroke:#000000; stroke-dasharray: 5 5;"/>
        <line x1="55" y1="569.5" x2="600" y2="35" style="stroke:#000000; stroke-dasharray: 5 5;"/>

        <!-- Stolper -->
        <rect x="107" y="32" height="9.7" width="10" style="stroke:#000000; fill: #ffffff"/>
        <rect x="423" y="32" height="9.7" width="10" style="stroke:#000000; fill: #ffffff"/>
        <rect x="540" y="32" height="9.7" width="10" style="stroke:#000000; fill: #ffffff"/>

        <rect x="730" y="32" height="9.7" width="10" style="stroke:#000000; fill: #ffffff"/>
        <rect x="107" y="562" height="9.7" width="10" style="stroke:#000000; fill: #ffffff"/>
        <rect x="423" y="562" height="9.7" width="10" style="stroke:#000000; fill: #ffffff"/>
        <rect x="540" y="562" height="9.7" width="10" style="stroke:#000000; fill: #ffffff"/>

        <rect x="730" y="562" height="9.7" width="10" style="stroke:#000000; fill: #ffffff"/>
    </svg>

</svg>